<mxfile host="app.diagrams.net" modified="2022-11-08T07:06:54.905Z" agent="5.0 (Windows)" etag="NGV1zd61snLbV9PGYplK" version="20.5.1" type="github">
  <diagram id="6mDZUOe-9lUSZ8C_rF7N" name="Page-1">
    <mxGraphModel dx="1888" dy="528" grid="1" gridSize="10" guides="1" tooltips="1" connect="1" arrows="1" fold="1" page="1" pageScale="1" pageWidth="850" pageHeight="1100" math="0" shadow="0">
      <root>
        <mxCell id="0" />
        <mxCell id="1" parent="0" />
        <mxCell id="Y2RWx4IcLvstfdlYOYzK-4" value="" style="edgeStyle=orthogonalEdgeStyle;rounded=0;orthogonalLoop=1;jettySize=auto;html=1;" parent="1" source="Y2RWx4IcLvstfdlYOYzK-1" target="Y2RWx4IcLvstfdlYOYzK-3" edge="1">
          <mxGeometry relative="1" as="geometry" />
        </mxCell>
        <mxCell id="Y2RWx4IcLvstfdlYOYzK-1" value="System Access Start" style="ellipse;whiteSpace=wrap;html=1;" parent="1" vertex="1">
          <mxGeometry x="-80" y="35" width="120" height="80" as="geometry" />
        </mxCell>
        <mxCell id="Y2RWx4IcLvstfdlYOYzK-6" value="" style="edgeStyle=orthogonalEdgeStyle;rounded=0;orthogonalLoop=1;jettySize=auto;html=1;" parent="1" source="Y2RWx4IcLvstfdlYOYzK-3" target="Y2RWx4IcLvstfdlYOYzK-5" edge="1">
          <mxGeometry relative="1" as="geometry" />
        </mxCell>
        <mxCell id="Y2RWx4IcLvstfdlYOYzK-8" value="" style="edgeStyle=orthogonalEdgeStyle;rounded=0;orthogonalLoop=1;jettySize=auto;html=1;" parent="1" source="Y2RWx4IcLvstfdlYOYzK-3" target="Y2RWx4IcLvstfdlYOYzK-7" edge="1">
          <mxGeometry relative="1" as="geometry" />
        </mxCell>
        <mxCell id="Y2RWx4IcLvstfdlYOYzK-24" value="Yes" style="edgeLabel;html=1;align=center;verticalAlign=middle;resizable=0;points=[];" parent="Y2RWx4IcLvstfdlYOYzK-8" vertex="1" connectable="0">
          <mxGeometry x="-0.3143" relative="1" as="geometry">
            <mxPoint as="offset" />
          </mxGeometry>
        </mxCell>
        <mxCell id="Y2RWx4IcLvstfdlYOYzK-3" value="Do you have an Account?" style="rhombus;whiteSpace=wrap;html=1;" parent="1" vertex="1">
          <mxGeometry x="260" y="20" width="130" height="110" as="geometry" />
        </mxCell>
        <mxCell id="Y2RWx4IcLvstfdlYOYzK-14" value="" style="edgeStyle=orthogonalEdgeStyle;rounded=0;orthogonalLoop=1;jettySize=auto;html=1;" parent="1" source="Y2RWx4IcLvstfdlYOYzK-5" target="Y2RWx4IcLvstfdlYOYzK-13" edge="1">
          <mxGeometry relative="1" as="geometry" />
        </mxCell>
        <mxCell id="Y2RWx4IcLvstfdlYOYzK-5" value="Create Account" style="whiteSpace=wrap;html=1;" parent="1" vertex="1">
          <mxGeometry x="475" y="45" width="120" height="60" as="geometry" />
        </mxCell>
        <mxCell id="Y2RWx4IcLvstfdlYOYzK-10" value="" style="edgeStyle=orthogonalEdgeStyle;rounded=0;orthogonalLoop=1;jettySize=auto;html=1;" parent="1" source="Y2RWx4IcLvstfdlYOYzK-7" target="Y2RWx4IcLvstfdlYOYzK-9" edge="1">
          <mxGeometry relative="1" as="geometry" />
        </mxCell>
        <mxCell id="Y2RWx4IcLvstfdlYOYzK-7" value="Login" style="whiteSpace=wrap;html=1;" parent="1" vertex="1">
          <mxGeometry x="265" y="235" width="120" height="60" as="geometry" />
        </mxCell>
        <mxCell id="Y2RWx4IcLvstfdlYOYzK-26" value="" style="edgeStyle=orthogonalEdgeStyle;rounded=0;orthogonalLoop=1;jettySize=auto;html=1;" parent="1" source="Y2RWx4IcLvstfdlYOYzK-9" target="Y2RWx4IcLvstfdlYOYzK-25" edge="1">
          <mxGeometry relative="1" as="geometry" />
        </mxCell>
        <mxCell id="Y2RWx4IcLvstfdlYOYzK-31" value="Yes" style="edgeLabel;html=1;align=center;verticalAlign=middle;resizable=0;points=[];" parent="Y2RWx4IcLvstfdlYOYzK-26" vertex="1" connectable="0">
          <mxGeometry x="-0.1636" y="-2" relative="1" as="geometry">
            <mxPoint as="offset" />
          </mxGeometry>
        </mxCell>
        <mxCell id="Y2RWx4IcLvstfdlYOYzK-28" value="" style="edgeStyle=orthogonalEdgeStyle;rounded=0;orthogonalLoop=1;jettySize=auto;html=1;" parent="1" source="Y2RWx4IcLvstfdlYOYzK-9" target="Y2RWx4IcLvstfdlYOYzK-27" edge="1">
          <mxGeometry relative="1" as="geometry" />
        </mxCell>
        <mxCell id="Y2RWx4IcLvstfdlYOYzK-32" value="No" style="edgeLabel;html=1;align=center;verticalAlign=middle;resizable=0;points=[];" parent="Y2RWx4IcLvstfdlYOYzK-28" vertex="1" connectable="0">
          <mxGeometry x="-0.287" y="2" relative="1" as="geometry">
            <mxPoint as="offset" />
          </mxGeometry>
        </mxCell>
        <mxCell id="Y2RWx4IcLvstfdlYOYzK-9" value="Login Success?" style="rhombus;whiteSpace=wrap;html=1;" parent="1" vertex="1">
          <mxGeometry x="285" y="365" width="80" height="80" as="geometry" />
        </mxCell>
        <mxCell id="Y2RWx4IcLvstfdlYOYzK-19" value="" style="edgeStyle=orthogonalEdgeStyle;rounded=0;orthogonalLoop=1;jettySize=auto;html=1;" parent="1" source="Y2RWx4IcLvstfdlYOYzK-13" target="Y2RWx4IcLvstfdlYOYzK-18" edge="1">
          <mxGeometry relative="1" as="geometry" />
        </mxCell>
        <mxCell id="Y2RWx4IcLvstfdlYOYzK-13" value="System creates New Account" style="shape=process;whiteSpace=wrap;html=1;backgroundOutline=1;" parent="1" vertex="1">
          <mxGeometry x="680" y="45" width="120" height="60" as="geometry" />
        </mxCell>
        <mxCell id="Y2RWx4IcLvstfdlYOYzK-21" value="" style="edgeStyle=orthogonalEdgeStyle;rounded=0;orthogonalLoop=1;jettySize=auto;html=1;" parent="1" source="Y2RWx4IcLvstfdlYOYzK-18" target="Y2RWx4IcLvstfdlYOYzK-20" edge="1">
          <mxGeometry relative="1" as="geometry" />
        </mxCell>
        <mxCell id="Y2RWx4IcLvstfdlYOYzK-18" value="System sends Account confirmation" style="shape=process;whiteSpace=wrap;html=1;backgroundOutline=1;" parent="1" vertex="1">
          <mxGeometry x="680" y="235" width="120" height="60" as="geometry" />
        </mxCell>
        <mxCell id="Y2RWx4IcLvstfdlYOYzK-22" value="" style="edgeStyle=orthogonalEdgeStyle;rounded=0;orthogonalLoop=1;jettySize=auto;html=1;" parent="1" source="Y2RWx4IcLvstfdlYOYzK-20" target="Y2RWx4IcLvstfdlYOYzK-7" edge="1">
          <mxGeometry relative="1" as="geometry" />
        </mxCell>
        <mxCell id="Y2RWx4IcLvstfdlYOYzK-20" value="User verifies Account details" style="whiteSpace=wrap;html=1;" parent="1" vertex="1">
          <mxGeometry x="475" y="235" width="120" height="60" as="geometry" />
        </mxCell>
        <mxCell id="Y2RWx4IcLvstfdlYOYzK-23" value="No" style="text;html=1;align=center;verticalAlign=middle;resizable=0;points=[];autosize=1;strokeColor=none;fillColor=none;" parent="1" vertex="1">
          <mxGeometry x="410" y="55" width="40" height="30" as="geometry" />
        </mxCell>
        <mxCell id="Y2RWx4IcLvstfdlYOYzK-30" value="" style="edgeStyle=orthogonalEdgeStyle;rounded=0;orthogonalLoop=1;jettySize=auto;html=1;" parent="1" source="Y2RWx4IcLvstfdlYOYzK-25" target="Y2RWx4IcLvstfdlYOYzK-29" edge="1">
          <mxGeometry relative="1" as="geometry" />
        </mxCell>
        <mxCell id="Y2RWx4IcLvstfdlYOYzK-25" value="View Dashboard" style="whiteSpace=wrap;html=1;" parent="1" vertex="1">
          <mxGeometry x="475" y="375" width="120" height="60" as="geometry" />
        </mxCell>
        <mxCell id="Y2RWx4IcLvstfdlYOYzK-34" value="" style="edgeStyle=orthogonalEdgeStyle;rounded=0;orthogonalLoop=1;jettySize=auto;html=1;" parent="1" source="Y2RWx4IcLvstfdlYOYzK-27" target="Y2RWx4IcLvstfdlYOYzK-33" edge="1">
          <mxGeometry relative="1" as="geometry" />
        </mxCell>
        <mxCell id="Y2RWx4IcLvstfdlYOYzK-27" value="Login Failure Alert" style="shape=process;whiteSpace=wrap;html=1;backgroundOutline=1;" parent="1" vertex="1">
          <mxGeometry x="90" y="375" width="120" height="60" as="geometry" />
        </mxCell>
        <mxCell id="Y2RWx4IcLvstfdlYOYzK-29" value="System Access Finish" style="ellipse;whiteSpace=wrap;html=1;" parent="1" vertex="1">
          <mxGeometry x="675" y="375" width="120" height="60" as="geometry" />
        </mxCell>
        <mxCell id="Y2RWx4IcLvstfdlYOYzK-35" style="edgeStyle=orthogonalEdgeStyle;rounded=0;orthogonalLoop=1;jettySize=auto;html=1;entryX=0;entryY=0.5;entryDx=0;entryDy=0;" parent="1" source="Y2RWx4IcLvstfdlYOYzK-33" target="Y2RWx4IcLvstfdlYOYzK-7" edge="1">
          <mxGeometry relative="1" as="geometry">
            <Array as="points">
              <mxPoint x="-50" y="265" />
            </Array>
          </mxGeometry>
        </mxCell>
        <mxCell id="Y2RWx4IcLvstfdlYOYzK-36" value="No" style="edgeLabel;html=1;align=center;verticalAlign=middle;resizable=0;points=[];" parent="Y2RWx4IcLvstfdlYOYzK-35" vertex="1" connectable="0">
          <mxGeometry x="0.0169" y="-1" relative="1" as="geometry">
            <mxPoint as="offset" />
          </mxGeometry>
        </mxCell>
        <mxCell id="Y2RWx4IcLvstfdlYOYzK-38" value="" style="edgeStyle=orthogonalEdgeStyle;rounded=0;orthogonalLoop=1;jettySize=auto;html=1;" parent="1" source="Y2RWx4IcLvstfdlYOYzK-33" target="Y2RWx4IcLvstfdlYOYzK-37" edge="1">
          <mxGeometry relative="1" as="geometry" />
        </mxCell>
        <mxCell id="_cxHt9hSoy0ERnRlC_hI-1" value="Yes" style="edgeLabel;html=1;align=center;verticalAlign=middle;resizable=0;points=[];" vertex="1" connectable="0" parent="Y2RWx4IcLvstfdlYOYzK-38">
          <mxGeometry x="-0.2889" y="1" relative="1" as="geometry">
            <mxPoint as="offset" />
          </mxGeometry>
        </mxCell>
        <mxCell id="Y2RWx4IcLvstfdlYOYzK-33" value="Forgot Password?" style="rhombus;whiteSpace=wrap;html=1;" parent="1" vertex="1">
          <mxGeometry x="-90" y="365" width="80" height="80" as="geometry" />
        </mxCell>
        <mxCell id="Y2RWx4IcLvstfdlYOYzK-42" value="" style="edgeStyle=orthogonalEdgeStyle;rounded=0;orthogonalLoop=1;jettySize=auto;html=1;" parent="1" source="Y2RWx4IcLvstfdlYOYzK-37" target="Y2RWx4IcLvstfdlYOYzK-41" edge="1">
          <mxGeometry relative="1" as="geometry" />
        </mxCell>
        <mxCell id="Y2RWx4IcLvstfdlYOYzK-37" value="Select Forgot Password" style="whiteSpace=wrap;html=1;" parent="1" vertex="1">
          <mxGeometry x="-110" y="535" width="120" height="60" as="geometry" />
        </mxCell>
        <mxCell id="Y2RWx4IcLvstfdlYOYzK-44" value="" style="edgeStyle=orthogonalEdgeStyle;rounded=0;orthogonalLoop=1;jettySize=auto;html=1;" parent="1" source="Y2RWx4IcLvstfdlYOYzK-41" target="Y2RWx4IcLvstfdlYOYzK-43" edge="1">
          <mxGeometry relative="1" as="geometry" />
        </mxCell>
        <mxCell id="Y2RWx4IcLvstfdlYOYzK-41" value="Provide email address" style="whiteSpace=wrap;html=1;" parent="1" vertex="1">
          <mxGeometry x="90" y="535" width="120" height="60" as="geometry" />
        </mxCell>
        <mxCell id="Y2RWx4IcLvstfdlYOYzK-46" value="" style="edgeStyle=orthogonalEdgeStyle;rounded=0;orthogonalLoop=1;jettySize=auto;html=1;" parent="1" source="Y2RWx4IcLvstfdlYOYzK-43" target="Y2RWx4IcLvstfdlYOYzK-45" edge="1">
          <mxGeometry relative="1" as="geometry" />
        </mxCell>
        <mxCell id="Y2RWx4IcLvstfdlYOYzK-43" value="System creates new password" style="shape=process;whiteSpace=wrap;html=1;backgroundOutline=1;" parent="1" vertex="1">
          <mxGeometry x="290" y="535" width="120" height="60" as="geometry" />
        </mxCell>
        <mxCell id="Y2RWx4IcLvstfdlYOYzK-48" value="" style="edgeStyle=orthogonalEdgeStyle;rounded=0;orthogonalLoop=1;jettySize=auto;html=1;" parent="1" source="Y2RWx4IcLvstfdlYOYzK-45" target="Y2RWx4IcLvstfdlYOYzK-47" edge="1">
          <mxGeometry relative="1" as="geometry" />
        </mxCell>
        <mxCell id="Y2RWx4IcLvstfdlYOYzK-45" value="System sends new password to user" style="shape=process;whiteSpace=wrap;html=1;backgroundOutline=1;" parent="1" vertex="1">
          <mxGeometry x="490" y="535" width="120" height="60" as="geometry" />
        </mxCell>
        <mxCell id="Y2RWx4IcLvstfdlYOYzK-50" style="edgeStyle=orthogonalEdgeStyle;rounded=0;orthogonalLoop=1;jettySize=auto;html=1;entryX=0;entryY=0.25;entryDx=0;entryDy=0;" parent="1" source="Y2RWx4IcLvstfdlYOYzK-47" target="Y2RWx4IcLvstfdlYOYzK-7" edge="1">
          <mxGeometry relative="1" as="geometry">
            <mxPoint x="260" y="250" as="targetPoint" />
            <Array as="points">
              <mxPoint x="750" y="630" />
              <mxPoint x="-120" y="630" />
              <mxPoint x="-120" y="250" />
            </Array>
          </mxGeometry>
        </mxCell>
        <mxCell id="Y2RWx4IcLvstfdlYOYzK-47" value="Attempt Login with new password" style="whiteSpace=wrap;html=1;" parent="1" vertex="1">
          <mxGeometry x="690" y="535" width="120" height="60" as="geometry" />
        </mxCell>
      </root>
    </mxGraphModel>
  </diagram>
</mxfile>
